<svg width="459" height="543" viewBox="0 0 459 543" fill="none" xmlns="http://www.w3.org/2000/svg">
<path opacity="0.5" d="M254.737 172.968C216.578 151.795 185.032 171.583 179.45 217.275C178.48 225.178 184.789 235.62 192.494 239.89L316.98 309.004C324.685 313.273 330.994 309.812 330.024 300.812C324.442 249.063 292.835 194.14 254.737 172.968Z" fill="url(#paint0_linear)"/>
<path opacity="0.5" d="M297.264 113.661C297.264 145.218 278.094 160.102 254.434 146.949C230.774 133.795 211.604 97.6226 211.604 66.0655C211.604 34.5083 230.774 19.6239 254.434 32.7775C278.094 45.9312 297.264 82.1036 297.264 113.661Z" fill="url(#paint1_linear)"/>
<path opacity="0.07" d="M279.246 154.045C241.087 132.872 209.541 152.66 203.959 198.352C202.989 206.256 209.298 216.698 217.003 220.967L341.49 290.081C349.194 294.35 355.503 290.889 354.533 281.889C348.952 230.14 317.405 175.218 279.246 154.045Z" fill="url(#paint2_linear)"/>
<path opacity="0.07" d="M321.773 94.7381C321.773 126.295 302.603 141.18 278.943 128.026C255.283 114.872 236.113 78.6999 236.113 47.1427C236.113 15.5855 255.283 0.701156 278.943 13.8548C302.603 27.0084 321.773 63.1809 321.773 94.7381Z" fill="url(#paint3_linear)"/>
<path opacity="0.2" d="M404.218 332.253L296.415 273.062V326.484L404.218 385.676V332.253Z" fill="url(#paint4_linear)"/>
<path d="M318.315 303.004C318.315 307.388 315.585 309.465 312.188 307.619C308.791 305.773 306.061 300.696 306.061 296.312C306.061 291.927 308.791 289.85 312.188 291.696C315.585 293.543 318.315 298.619 318.315 303.004Z" fill="#F2C94C"/>
<path opacity="0.15" d="M324.018 301.1L356.413 318.927V325.33L323.957 307.504L324.018 301.1Z" fill="white"/>
<path opacity="0.15" d="M324.018 313.965L393.056 351.868V358.388L324.018 320.484V313.965Z" fill="white"/>
<path opacity="0.2" d="M185.214 270.524L77.4099 211.39V264.812L185.214 324.003V270.524Z" fill="url(#paint5_linear)"/>
<path d="M99.3102 241.274C99.3102 245.659 96.5802 247.736 93.1829 245.889C89.7856 244.043 87.0557 238.966 87.0557 234.582C87.0557 230.197 89.7856 228.121 93.1829 229.967C96.5802 231.813 99.3102 236.89 99.3102 241.274Z" fill="#F2994A"/>
<path opacity="0.15" d="M104.831 239.659L124.366 250.389V256.908L104.831 246.178V239.659Z" fill="white"/>
<path opacity="0.15" d="M105.013 252.524L174.051 290.427V296.946L105.013 259.043V252.524Z" fill="white"/>
<path opacity="0.3" d="M254.677 329.6L458.939 441.752L459 543L272.755 440.771L254.737 446.367L254.677 329.6Z" fill="url(#paint6_linear)"/>
<path d="M296.172 386.31C296.172 394.676 291.015 398.541 284.585 395.022C278.154 391.503 272.998 381.868 272.998 373.56C272.998 365.195 278.154 361.33 284.585 364.849C290.955 368.368 296.172 378.003 296.172 386.31Z" fill="#F2C94C"/>
<path opacity="0.15" d="M307.213 383.079L351.985 407.656V416.54L307.213 391.964V383.079Z" fill="white"/>
<path opacity="0.15" d="M307.213 400.906L440.921 474.289V483.174L307.213 409.791V400.906Z" fill="white"/>
<path opacity="0.15" d="M307.213 418.733L411.741 476.136V485.02L307.213 427.617V418.733Z" fill="white"/>
<path opacity="0.3" d="M227.073 358.676L22.8105 246.582L22.8712 347.83L209.116 450.059L227.134 475.443L227.073 358.676Z" fill="url(#paint7_linear)"/>
<path d="M185.578 369.811C185.578 378.176 190.795 387.753 197.165 391.272C203.595 394.791 208.752 390.868 208.752 382.503C208.752 374.137 203.535 364.561 197.165 361.041C190.795 357.58 185.578 361.503 185.578 369.811Z" fill="#F2994A"/>
<path opacity="0.15" d="M174.536 354.522L129.765 329.946V338.83L174.536 363.407V354.522Z" fill="white"/>
<path opacity="0.15" d="M174.597 372.291L40.8889 298.908V307.792L174.536 381.176L174.597 372.291Z" fill="white"/>
<path opacity="0.15" d="M174.597 390.118L70.0693 332.715V341.599L174.597 399.002V390.118Z" fill="white"/>
<path opacity="0.2" d="M107.864 421.733C111.504 423.694 114.416 428.54 114.416 432.579V450.175L126.671 456.867C130.311 458.828 133.223 463.674 133.223 467.655C133.223 471.636 130.311 473.251 126.671 471.29L114.416 464.54V482.136C114.416 486.116 111.504 487.732 107.864 485.77C104.224 483.809 101.312 478.963 101.312 474.982V457.386L89.0578 450.694C85.4178 448.732 82.5059 443.886 82.5059 439.905C82.5059 435.925 85.4178 434.309 89.0578 436.271L101.312 442.963V425.367C101.252 421.329 104.224 419.713 107.864 421.733Z" fill="url(#paint8_linear)"/>
<path opacity="0.2" d="M371.459 196.333L388.324 227.832C390.629 232.159 390.265 236.486 387.475 237.524C384.684 238.563 380.559 235.851 378.253 231.524L378.071 231.12V266.081C378.071 270.062 375.159 271.678 371.52 269.716C367.88 267.697 364.968 262.908 364.968 258.928V223.967L364.786 224.14C362.48 225.928 358.294 224.082 355.564 219.986C352.774 215.89 352.41 211.159 354.715 209.371L371.459 196.333Z" fill="url(#paint9_linear)"/>
<path opacity="0.2" d="M227.074 252.645L201.108 238.396V230.088L227.074 244.338C229.197 245.492 232.291 247.857 234.899 251.491C237.751 255.357 239.753 260.261 239.753 265.568C239.753 271.453 238.175 274.799 235.203 275.722C232.412 276.587 229.075 275.087 227.074 273.991L216.396 268.107L216.336 268.049C215.426 267.53 213.97 267.01 212.817 267.357C211.846 267.645 210.815 268.51 210.815 271.799C210.815 275.087 211.907 277.049 212.756 278.26C213.848 279.76 215.304 280.799 216.214 281.26L216.336 281.318L248.974 299.26V307.567L216.518 289.741C214.273 288.645 211.058 286.279 208.267 282.587C205.234 278.491 203.171 273.356 203.171 267.645C203.171 261.934 205.234 259.049 208.206 258.241C210.997 257.491 214.212 258.587 216.457 259.857L227.013 265.684C228.529 266.549 229.682 266.895 230.471 266.664C231.077 266.491 232.169 265.684 232.169 261.472C232.169 258.703 231.259 256.914 230.349 255.761C229.318 254.203 227.983 253.107 227.074 252.645Z" fill="white"/>
<path d="M205.901 236.607C205.901 244.049 201.29 247.568 195.648 244.511C190.006 241.395 185.396 232.857 185.396 225.357C185.396 217.915 190.006 214.396 195.648 217.454C201.29 220.569 205.901 229.165 205.901 236.607Z" fill="#F2994A"/>
<path d="M262.32 310.452C262.32 317.894 257.71 321.413 252.068 318.356C246.426 315.24 241.815 306.702 241.815 299.202C241.815 291.76 246.426 288.241 252.068 291.298C257.71 294.414 262.32 303.01 262.32 310.452Z" fill="#F2C94C"/>
<defs>
<linearGradient id="paint0_linear" x1="412.151" y1="138.44" x2="262.674" y2="253.101" gradientUnits="userSpaceOnUse">
<stop stop-color="white"/>
<stop offset="1" stop-color="white" stop-opacity="0"/>
</linearGradient>
<linearGradient id="paint1_linear" x1="333.177" y1="35.25" x2="183.701" y2="149.911" gradientUnits="userSpaceOnUse">
<stop stop-color="white"/>
<stop offset="1" stop-color="white" stop-opacity="0"/>
</linearGradient>
<linearGradient id="paint2_linear" x1="436.671" y1="119.511" x2="287.194" y2="234.172" gradientUnits="userSpaceOnUse">
<stop stop-color="white"/>
<stop offset="1" stop-color="white" stop-opacity="0"/>
</linearGradient>
<linearGradient id="paint3_linear" x1="357.696" y1="16.3202" x2="208.22" y2="130.981" gradientUnits="userSpaceOnUse">
<stop stop-color="white"/>
<stop offset="1" stop-color="white" stop-opacity="0"/>
</linearGradient>
<linearGradient id="paint4_linear" x1="362.466" y1="309.342" x2="339.936" y2="350.388" gradientUnits="userSpaceOnUse">
<stop stop-color="white"/>
<stop offset="1" stop-color="white" stop-opacity="0"/>
</linearGradient>
<linearGradient id="paint5_linear" x1="143.462" y1="247.62" x2="120.932" y2="288.666" gradientUnits="userSpaceOnUse">
<stop stop-color="white"/>
<stop offset="1" stop-color="white" stop-opacity="0"/>
</linearGradient>
<linearGradient id="paint6_linear" x1="342.412" y1="332.895" x2="366.33" y2="536.894" gradientUnits="userSpaceOnUse">
<stop stop-color="white"/>
<stop offset="1" stop-color="white" stop-opacity="0"/>
</linearGradient>
<linearGradient id="paint7_linear" x1="182.533" y1="318.131" x2="81.1278" y2="401.623" gradientUnits="userSpaceOnUse">
<stop stop-color="white"/>
<stop offset="1" stop-color="white" stop-opacity="0"/>
</linearGradient>
<linearGradient id="paint8_linear" x1="120.516" y1="444.207" x2="89.9922" y2="469.538" gradientUnits="userSpaceOnUse">
<stop stop-color="white"/>
<stop offset="1" stop-color="white" stop-opacity="0"/>
</linearGradient>
<linearGradient id="paint9_linear" x1="383.447" y1="228.109" x2="353.43" y2="245.705" gradientUnits="userSpaceOnUse">
<stop stop-color="white"/>
<stop offset="1" stop-color="white" stop-opacity="0"/>
</linearGradient>
</defs>
</svg>
